<svg width="27" height="30" viewBox="0 0 27 34" xmlns="http://www.w3.org/2000/svg"><defs><linearGradient x1="15.348%" y1="0%" x2="88.708%" y2="88.919%" id="svg5867455e15e6b42336a83c73185aa6722357f59eb2215ca7b053d60170fbd7b8__a"><stop stop-color="#89EB89" offset="0%"/><stop stop-color="#51D251" offset="100%"/></linearGradient><linearGradient x1="49.44%" y1="0%" x2="50.56%" y2="100%" id="svg5867455e15e6b42336a83c73185aa6722357f59eb2215ca7b053d60170fbd7b8__b"><stop stop-color="#C3F407" offset="0%"/><stop stop-color="#90E503" offset="100%"/></linearGradient><linearGradient x1="49.793%" y1="0%" x2="50.207%" y2="100%" id="svg5867455e15e6b42336a83c73185aa6722357f59eb2215ca7b053d60170fbd7b8__c"><stop stop-color="#C3F407" offset="0%"/><stop stop-color="#90E503" offset="100%"/></linearGradient></defs><g fill="none" fill-rule="evenodd"><path d="M0 0H40V40H0z" transform="translate(-6 -3)"/><path d="M26.325,23.9333333 C26.3925,23.9333333 26.325,25 26.325,24.6 L16.875,33.9333333 C16.875,33.9333333 16.6725,33.9333333 16.47,33.9333333 L0.7425,33.9333333 C0.3375,33.9333333 0,33.6 0,33.1333333 L0,1.33333333 C0,0.933333333 0.3375,0.533333333 0.7425,0.533333333 L25.5825,0.533333333 C25.9875,0.533333333 26.325,0.866666667 26.325,1.33333333 L26.325,23.9333333 C26.325,23.8666667 26.325,23.9333333 26.325,23.9333333 Z M24.9075,24.6666667 L16.875,24.6 L16.875,32.6 L24.9075,24.6666667 Z M25.65,1.26666667 L0.675,1.26666667 L0.675,33.2666667 L16.2,33.2666667 L16.2,24.6 C16.2,24.2 16.47,23.9333333 16.875,23.9333333 L25.65,23.9333333 L25.65,1.26666667 Z" fill="#23B381" fill-rule="nonzero"/><path d="M5.7375,14 L12.4875,14" stroke="#223042" stroke-linecap="round" stroke-linejoin="round"/><path d="M26.325,23.9333333 C26.3925,23.9333333 26.325,25 26.325,24.6 L16.875,33.9333333 C16.875,33.9333333 16.6725,33.9333333 16.47,33.9333333 L0.7425,33.9333333 C0.3375,33.9333333 0,33.6 0,33.1333333 L0,1.33333333 C0,0.933333333 0.3375,0.533333333 0.7425,0.533333333 L25.5825,0.533333333 C25.9875,0.533333333 26.325,0.866666667 26.325,1.33333333 L26.325,23.9333333 C26.325,23.8666667 26.325,23.9333333 26.325,23.9333333 Z M24.9075,24.6666667 L16.875,24.6 L16.875,32.6 L24.9075,24.6666667 Z" fill="url(#svg5867455e15e6b42336a83c73185aa6722357f59eb2215ca7b053d60170fbd7b8__a)"/><path d="M5.7375,6 L15.1875,6" stroke="#FFF" fill="url(#svg5867455e15e6b42336a83c73185aa6722357f59eb2215ca7b053d60170fbd7b8__b)" fill-rule="nonzero" stroke-linecap="round" stroke-linejoin="round"/><path d="M5.7375 8L21.2625 8M5.7375 10L21.2625 10M5.7375 12L21.2625 12" stroke="#FFF" fill="url(#svg5867455e15e6b42336a83c73185aa6722357f59eb2215ca7b053d60170fbd7b8__c)" fill-rule="nonzero" stroke-linecap="round" stroke-linejoin="round"/></g></svg>