<svg width="36" height="32" viewBox="0 0 36 32" xmlns="http://www.w3.org/2000/svg"><defs><linearGradient x1="2.193%" y1="0%" x2="98.489%" y2="100%" id="svg028f2aa83104c7f0c0edff044e0be61019d9430fc2c0dddf8bf95212193e35b3__a"><stop stop-color="#A5D9FF" offset="0%"/><stop stop-color="#6CB1FF" offset="100%"/></linearGradient></defs><g fill="none" fill-rule="evenodd"><path opacity=".1" d="M0 0H40V40H0z" transform="translate(-2 -4)"/><g fill-rule="nonzero"><path d="M6.62142857,31.4352941 C6.17142857,31.4352941 5.78571429,31.4352941 5.33571429,31.372549 C4.95,31.372549 4.69285714,31.0588235 4.62857143,30.745098 C4.56428571,30.4313725 4.75714286,30.054902 5.07857143,29.8666667 C6.94285714,28.9882353 8.35714286,27.7333333 9.38571429,26.1019608 C3.66428571,23.7176471 0,18.9490196 0,13.8666667 C0,6.21176471 7.90714286,0 17.6785714,0 C27.45,0 35.3571429,6.21176471 35.3571429,13.8666667 C35.3571429,21.5215686 27.45,27.7333333 17.6785714,27.7333333 C17.3571429,27.7333333 16.9714286,27.7333333 16.65,27.6705882 C14.1428571,30.1176471 10.6071429,31.4352941 6.62142857,31.4352941 Z" fill="url(#svg028f2aa83104c7f0c0edff044e0be61019d9430fc2c0dddf8bf95212193e35b3__a)"/><ellipse fill="#FFF" cx="9.964" cy="14.745" rx="2.571" ry="2.51"/><ellipse fill="#FFF" cx="17.679" cy="14.745" rx="2.571" ry="2.51"/><ellipse fill="#FFF" cx="25.393" cy="14.745" rx="2.571" ry="2.51"/></g></g></svg>