<svg xmlns="http://www.w3.org/2000/svg" width="41" height="33" viewBox="0 0 41 33"><defs><linearGradient id="svg0ce46d9ea1826cd8d35978fed7d4dd41cd0a465ed27668d2b874c7edb1d47b12__a" x1="24.137%" x2="76.099%" y1="0%" y2="86.833%"><stop offset="0%" stop-color="#FFD5A0"/><stop offset="100%" stop-color="#ffb500"/></linearGradient></defs><g fill="none" fill-rule="evenodd"><rect width="41" height="33" fill="url(#svg0ce46d9ea1826cd8d35978fed7d4dd41cd0a465ed27668d2b874c7edb1d47b12__a)" rx="4"/><rect width="31" height="20" x="5" y="6" fill="#FFF" rx="1"/><path fill="url(#svg0ce46d9ea1826cd8d35978fed7d4dd41cd0a465ed27668d2b874c7edb1d47b12__a)" fill-rule="nonzero" d="M15.4074074,12 C15.1824025,12 15,11.7761424 15,11.5 C15,11.2238576 15.1824025,11 15.4074074,11 L25.5925926,11 C25.8175975,11 26,11.2238576 26,11.5 C26,11.7761424 25.8175975,12 25.5925926,12 L15.4074074,12 Z"/><g fill="url(#svg0ce46d9ea1826cd8d35978fed7d4dd41cd0a465ed27668d2b874c7edb1d47b12__a)" fill-rule="nonzero" transform="translate(10 16)"><path d="M.3125.846153846C.15786027.846153846.0325.725615125.0325.576923077.0325.428231029.15786027.307692308.3125.307692308L19.6875.307692308C19.8421397.307692308 19.9675.428231029 19.9675.576923077 19.9675.725615125 19.8421397.846153846 19.6875.846153846L.3125.846153846ZM.3125 2.76923077C.15786027 2.76923077.0325 2.64869205.0325 2.5.0325 2.35130795.15786027 2.23076923.3125 2.23076923L19.6875 2.23076923C19.8421397 2.23076923 19.9675 2.35130795 19.9675 2.5 19.9675 2.64869205 19.8421397 2.76923077 19.6875 2.76923077L.3125 2.76923077ZM.3125 4.69230769C.15786027 4.69230769.0325 4.57176897.0325 4.42307692.0325 4.27438488.15786027 4.15384615.3125 4.15384615L19.6875 4.15384615C19.8421397 4.15384615 19.9675 4.27438488 19.9675 4.42307692 19.9675 4.57176897 19.8421397 4.69230769 19.6875 4.69230769L.3125 4.69230769Z"/></g></g></svg>