<svg width="35" height="28" viewBox="0 0 35 28" xmlns="http://www.w3.org/2000/svg"><defs><linearGradient x1="34.443%" y1="0%" x2="80.943%" y2="88.142%" id="svge5baf460e4e6b0e25a4826d8be10269d70027bd5e0a9482a3bb97b447856dc51__a"><stop stop-color="#955AD7" offset="0%"/><stop stop-color="#5E21A4" offset="100%"/></linearGradient></defs><g fill="none" fill-rule="evenodd"><path opacity=".1" d="M0 0H40V40H0z" transform="translate(-3 -6)"/><g transform="translate(-.391 -.486)" fill="url(#svge5baf460e4e6b0e25a4826d8be10269d70027bd5e0a9482a3bb97b447856dc51__a)" fill-rule="nonzero"><path d="M2.30746624 1.90339788L1.16234307 2.92130197.559646663 2.2344236 2.40217568.761359152 3.34066008.761359152 3.34066008 6.62051437 2.30746624 6.62051437 2.30746624 1.90339788zM5.68256612 6.04121936C5.68256612 5.86467143 5.75001004 5.71295282 5.88489991 5.586059 6.01978978 5.45916517 6.18194219 5.39571921 6.37136201 5.39571921 6.55504183 5.39571921 6.71575927 5.45640665 6.85351913 5.57778336 6.991279 5.69916006 7.0601579 5.84812014 7.0601579 6.02466808 7.0601579 6.20121601 6.99271398 6.35293461 6.85782411 6.47982844 6.72293424 6.60672226 6.56078183 6.67016823 6.37136201 6.67016823 6.2795221 6.67016823 6.19198849 6.65361711 6.10875857 6.62051437 6.02552865 6.58741163 5.95234482 6.54327531 5.88920488 6.48810408 5.82606494 6.43293285 5.77584075 6.36672837 5.73853078 6.28948865 5.70122082 6.21224893 5.68256612 6.12949333 5.68256612 6.04121936zM.507986971 16.3278436L2.87572285 14.1265225C2.94460279 14.0603171 3.01635164 13.9899748 3.09097157 13.9154936 3.1655915 13.8410125 3.23303542 13.7623947 3.29330536 13.6796378 3.3535753 13.596881 3.4037995 13.5099876 3.44397946 13.4189551 3.48415943 13.3279226 3.5042491 13.2327536 3.5042491 13.1334454 3.5042491 13.0120687 3.47985449 12.9044864 3.43106454 12.8106953 3.38227459 12.7169042 3.31770062 12.6369071 3.2373407 12.5707017 3.15698077 12.5044962 3.06370726 12.4534636 2.95751736 12.4176023 2.85132747 12.381741 2.73796428 12.3638106 2.61742439 12.3638106 2.35912464 12.3638106 2.14674803 12.4355321 1.98028819 12.5789773 1.81382835 12.7224225 1.71337996 12.9155189 1.67893999 13.1582723L.594086457 13.0755159C.617046435 12.8051769.684490359 12.5665649.796420251 12.3596728.908350143 12.1527807 1.05328283 11.9803731 1.23122266 11.8424451 1.40916249 11.704517 1.61579919 11.5996932 1.85113896 11.5279706 2.08647874 11.456248 2.34190466 11.4203873 2.61742439 11.4203873 2.89294413 11.4203873 3.14980503 11.4548688 3.3880148 11.5238328 3.62622457 11.5927969 3.83429625 11.6948621 4.01223608 11.8300316 4.1901759 11.9652012 4.33080366 12.1376086 4.43412356 12.3472593 4.53744346 12.55691 4.58910264 12.8024183 4.58910264 13.0837915 4.58910264 13.4534388 4.50156903 13.7720479 4.3264992 14.0396283 4.15142937 14.3072088 3.92613797 14.5623718 3.65061823 14.8051253L1.76503948 16.4850808 4.58910264 16.4850808 4.58910264 17.3788502.507986971 17.3788502.507986971 16.3278436zM5.68256612 16.7995552C5.68256612 16.6230073 5.75001004 16.4712887 5.88489991 16.3443948 6.01978978 16.217501 6.18194219 16.1540551 6.37136201 16.1540551 6.55504183 16.1540551 6.71575927 16.2147425 6.85351913 16.3361192 6.991279 16.4574959 7.0601579 16.606456 7.0601579 16.7830039 7.0601579 16.9595519 6.99271398 17.1112705 6.85782411 17.2381643 6.72293424 17.3650581 6.56078183 17.4285041 6.37136201 17.4285041 6.2795221 17.4285041 6.19198849 17.411953 6.10875857 17.3788502 6.02552865 17.3457475 5.95234482 17.3016112 5.88920488 17.2464399 5.82606494 17.1912687 5.77584075 17.1250642 5.73853078 17.0478245 5.70122082 16.9705848 5.68256612 16.8878292 5.68256612 16.7995552zM1.9114086 24.6365891L2.17831701 24.6365891C2.32755687 24.6365891 2.47248955 24.6283135 2.61311942 24.6117622 2.75374928 24.5952108 2.88002727 24.55935 2.99195716 24.5041788 3.10388705 24.4490076 3.19429061 24.3690105 3.26317054 24.2641852 3.33205048 24.1593598 3.36648993 24.0186753 3.36648993 23.8421274 3.36648993 23.6159253 3.28613121 23.4311045 3.12541136 23.2876593 2.96469152 23.1442141 2.75518486 23.0724926 2.49688511 23.0724926 2.29024531 23.0724926 2.10513327 23.1290423 1.94154342 23.2421433 1.77795358 23.3552443 1.65885048 23.5138592 1.58423055 23.7179927L.490767074 23.4366209C.559647007 23.2214531.65722545 23.0338737.783505328 22.8738771.909785206 22.7138806 1.05902282 22.5828509 1.23122266 22.4807841 1.40342249 22.3787174 1.59283947 22.302858 1.79947927 22.2532039 2.00611907 22.2035498 2.22136563 22.1787231 2.44522542 22.1787231 2.70926516 22.1787231 2.95895118 22.2118254 3.19429095 22.2780308 3.42963073 22.3442363 3.63626743 22.4421638 3.81420726 22.5718162 3.99214708 22.7014686 4.13420982 22.8642213 4.24039971 23.0600791 4.34658961 23.255937 4.39968376 23.4835149 4.39968376 23.7428197 4.39968376 24.0572957 4.30784523 24.3372855 4.12416541 24.5827974 3.94048558 24.8283094 3.68505966 24.9896828 3.35787998 25.0669225L3.35787998 25.0834738C3.7481996 25.138645 4.04380488 25.2986392 4.24470469 25.5634611 4.4456045 25.828283 4.54605289 26.1427543 4.54605289 26.5068844 4.54605289 26.7882577 4.49008879 27.0365245 4.37815889 27.2516923 4.266229 27.4668601 4.11555641 27.6475432 3.92613659 27.7937469 3.73671677 27.9399507 3.51716528 28.0502915 3.26747552 28.1247726 3.01778576 28.1992538 2.7580549 28.2364938 2.48827516 28.2364938 2.23571541 28.2364938 1.99750921 28.2102879 1.77364942 28.1578752 1.54978964 28.1054625 1.34745787 28.0240862 1.16664804 27.9137437.985838217 27.8034012.829425714 27.6613375.697405841 27.4875481.565385969 27.3137588.464937572 27.1054905.396057638 26.862737L1.49813107 26.5813652C1.56127101 26.8241186 1.67319922 27.011698 1.83391906 27.1441089 1.99463891 27.2765199 2.21275543 27.3427243 2.48827516 27.3427243 2.62603503 27.3427243 2.75661795 27.3206562 2.88002783 27.2765192 3.00343771 27.2323822 3.11249597 27.1703156 3.20720588 27.0903172 3.30191578 27.010319 3.37653459 26.9137708 3.43106454 26.8006697 3.48559449 26.6875687 3.51285905 26.562056 3.51285905 26.424128 3.51285905 26.2365458 3.47124472 26.083448 3.3880148 25.9648298 3.30478488 25.8462117 3.19859657 25.7551805 3.0694467 25.6917336 2.94029682 25.6282867 2.79536413 25.5855296 2.63464429 25.5634611 2.47392444 25.5413926 2.31607696 25.5303585 2.16109711 25.5303585L1.9114086 25.5303585 1.9114086 24.6365891zM5.68256612 27.5578911C5.68256612 27.3813431 5.75001004 27.2296245 5.88489991 27.1027307 6.01978978 26.9758369 6.18194219 26.9123909 6.37136201 26.9123909 6.55504183 26.9123909 6.71575927 26.9730783 6.85351913 27.0944551 6.991279 27.2158318 7.0601579 27.3647918 7.0601579 27.5413398 7.0601579 27.7178877 6.99271398 27.8696063 6.85782411 27.9965001 6.72293424 28.123394 6.56078183 28.1868399 6.37136201 28.1868399 6.2795221 28.1868399 6.19198849 28.1702888 6.10875857 28.1371861 6.02552865 28.1040833 5.95234482 28.059947 5.88920488 28.0047758 5.82606494 27.9496045 5.77584075 27.8834001 5.73853078 27.8061603 5.70122082 27.7289206 5.68256612 27.646165 5.68256612 27.5578911zM10.7624358 4.55160363L19.3723845 4.55160363C19.8478988 4.55160363 20.2333793 4.18109047 20.2333793 3.72403933 20.2333793 3.26698819 19.8478988 2.89647504 19.3723845 2.89647504L10.7624358 2.89647504C10.2869215 2.89647504 9.90144096 3.26698819 9.90144096 3.72403933 9.90144096 4.18109047 10.2869215 4.55160363 10.7624358 4.55160363zM10.7624358 15.3099395L26.2603434 15.3099395C26.7358577 15.3099395 27.1213383 14.9394263 27.1213383 14.4823752 27.1213383 14.025324 26.7358577 13.6548109 26.2603434 13.6548109L10.7624358 13.6548109C10.2869215 13.6548109 9.90144096 14.025324 9.90144096 14.4823752 9.90144096 14.9394263 10.2869215 15.3099395 10.7624358 15.3099395zM10.7624358 26.0682753L34.0252361 26.0682753C34.5007504 26.0682753 34.886231 25.6977622 34.886231 25.240711 34.886231 24.7836599 34.5007504 24.4131467 34.0252361 24.4131467L10.7624358 24.4131467C10.2869215 24.4131467 9.90144096 24.7836599 9.90144096 25.240711 9.90144096 25.6977622 10.2869215 26.0682753 10.7624358 26.0682753z"/></g></g></svg>