<svg width="273" height="221" viewBox="0 0 273 221" fill="none" xmlns="http://www.w3.org/2000/svg" class="sc-jMAIzZ emRRcN"><g clip-path="url(#svg6000dda5fd7ca8ca75d00066363dafdb45a4b9d76e96400041ec9a59478d65d0__clip0_455_3029)"><path opacity=".1" d="M213.98 57.98C217.88 86.84 195.52 98.02 208.26 143C218.4 178.88 191.1 196.82 173.94 202.8C165.62 205.66 132.86 208.78 130.78 188.76C124.28 120.9 35.1 72.8 107.38 34.32C136.76 18.72 205.4 -7.54 213.98 57.98Z" fill="#96CBFF"/><g filter="url(#svg6000dda5fd7ca8ca75d00066363dafdb45a4b9d76e96400041ec9a59478d65d0__filter0_d_455_3029)"><path d="M135.98 83.2H62.4C52.492 83.2 44.46 91.232 44.46 101.14C44.46 111.048 52.492 119.08 62.4 119.08H135.98C145.888 119.08 153.92 111.048 153.92 101.14C153.92 91.232 145.888 83.2 135.98 83.2Z" fill="#fff"/></g><path d="M68.38 107.38C67.86 107.12 67.6 106.6 67.34 106.08 67.34 105.56 67.34 105.04 67.86 104.52L68.9 102.96H67.34C66.56 102.96 66.04 102.96 65.78 102.7 65.52 102.44 65.26 101.92 65.26 101.14 65.26 100.36 65.26 100.1 65.78 99.58 66.3 99.06 66.82 99.06 67.34 99.06H68.9L67.86 97.76C67.34 97.24 67.34 96.72 67.34 96.2 67.34 95.68 67.86 95.16 68.38 94.9 68.9 94.64 69.42 94.38 69.94 94.9 70.46 95.42 70.72 95.68 70.98 96.2L71.76 98.28 72.54 96.2C72.8 95.42 73.32 95.16 73.84 94.9 74.36 94.64 74.88 94.9 75.4 94.9 75.92 95.16 76.44 95.68 76.44 96.2 76.44 96.72 76.44 97.24 75.92 97.76L74.88 99.32H76.44C77.22 99.32 77.74 99.32 78.26 99.58 78.78 99.84 78.78 100.36 78.78 101.14 78.78 101.92 78.78 102.18 78.26 102.7 77.74 102.96 77.22 103.22 76.44 103.22H74.88L75.92 104.52C76.44 105.04 76.44 105.56 76.44 106.08 76.44 106.6 75.92 107.12 75.4 107.38 74.88 107.64 74.36 107.9 73.84 107.38 73.32 106.86 73.06 106.6 72.8 106.08L72.02 104 70.98 106.08C70.72 106.86 70.2 107.12 69.68 107.38 69.16 107.64 68.64 107.38 68.12 107.38H68.38zM84.76 107.38C84.24 107.12 83.98 106.6 83.72 106.08 83.72 105.56 83.72 105.04 84.24 104.52L85.28 102.96H83.72C82.94 102.96 82.42 102.96 82.16 102.7 81.9 102.44 81.64 101.92 81.64 101.14 81.64 100.36 81.64 100.1 82.16 99.58 82.68 99.06 83.2 99.06 83.72 99.06H85.28L84.24 97.76C83.72 97.24 83.72 96.72 83.72 96.2 83.72 95.68 84.24 95.16 84.76 94.9 85.28 94.64 85.8 94.38 86.32 94.9 86.84 95.42 87.1 95.68 87.36 96.2L88.14 98.28 88.92 96.2C89.18 95.42 89.7 95.16 90.22 94.9 90.74 94.64 91.26 94.9 91.78 94.9 92.3 95.16 92.82 95.68 92.82 96.2 92.82 96.72 92.82 97.24 92.3 97.76L91.26 99.32H92.82C93.6 99.32 94.12 99.32 94.64 99.58 95.16 99.84 95.16 100.36 95.16 101.14 95.16 101.92 95.16 102.18 94.64 102.7 94.12 102.96 93.6 103.22 92.82 103.22H91.26L92.3 104.52C92.82 105.04 92.82 105.56 92.82 106.08 92.82 106.6 92.3 107.12 91.78 107.38 91.26 107.64 90.74 107.9 90.22 107.38 89.7 106.86 89.44 106.6 89.18 106.08L88.4 104 87.36 106.08C87.1 106.86 86.58 107.12 86.06 107.38 85.54 107.64 85.02 107.38 84.5 107.38H84.76zM101.14 107.38C100.62 107.12 100.36 106.6 100.1 106.08 100.1 105.56 100.1 105.04 100.62 104.52L101.66 102.96H100.1C99.32 102.96 98.8 102.96 98.54 102.7 98.28 102.44 98.02 101.92 98.02 101.14 98.02 100.36 98.02 100.1 98.54 99.58 99.06 99.06 99.58 99.06 100.1 99.06H101.66L100.62 97.76C100.1 97.24 100.1 96.72 100.1 96.2 100.1 95.68 100.62 95.16 101.14 94.9 101.66 94.64 102.18 94.38 102.7 94.9 103.22 95.42 103.48 95.68 103.74 96.2L104.52 98.28 105.3 96.2C105.56 95.42 106.08 95.16 106.6 94.9 107.12 94.64 107.64 94.9 108.16 94.9 108.68 95.16 109.2 95.68 109.2 96.2 109.2 96.72 109.2 97.24 108.68 97.76L107.64 99.32H109.2C109.98 99.32 110.5 99.32 111.02 99.58 111.54 99.84 111.54 100.36 111.54 101.14 111.54 101.92 111.54 102.18 111.02 102.7 110.5 102.96 109.98 103.22 109.2 103.22H107.64L108.68 104.52C109.2 105.04 109.2 105.56 109.2 106.08 109.2 106.6 108.68 107.12 108.16 107.38 107.64 107.64 107.12 107.9 106.6 107.38 106.08 106.86 105.82 106.6 105.56 106.08L104.78 104 103.74 106.08C103.48 106.86 102.96 107.12 102.44 107.38 101.92 107.64 101.4 107.38 100.88 107.38H101.14zM117.26 107.38C116.74 107.12 116.48 106.6 116.22 106.08 116.22 105.56 116.22 105.04 116.74 104.52L117.78 102.96H116.22C115.44 102.96 114.92 102.96 114.66 102.7 114.4 102.44 114.14 101.92 114.14 101.14 114.14 100.36 114.14 100.1 114.66 99.58 115.18 99.06 115.7 99.06 116.22 99.06H117.78L116.74 97.76C116.22 97.24 116.22 96.72 116.22 96.2 116.22 95.68 116.74 95.16 117.26 94.9 117.78 94.64 118.3 94.38 118.82 94.9 119.34 95.42 119.6 95.68 119.86 96.2L120.64 98.28 121.42 96.2C121.68 95.42 122.2 95.16 122.72 94.9 123.24 94.64 123.76 94.9 124.28 94.9 124.8 95.16 125.32 95.68 125.32 96.2 125.32 96.72 125.32 97.24 124.8 97.76L123.76 99.32H125.32C126.1 99.32 126.62 99.32 127.14 99.58 127.66 99.84 127.66 100.36 127.66 101.14 127.66 101.92 127.66 102.18 127.14 102.7 126.62 102.96 126.1 103.22 125.32 103.22H123.76L124.8 104.52C125.32 105.04 125.32 105.56 125.32 106.08 125.32 106.6 124.8 107.12 124.28 107.38 123.76 107.64 123.24 107.9 122.72 107.38 122.2 106.86 121.94 106.6 121.68 106.08L120.9 104 119.86 106.08C119.6 106.86 119.08 107.12 118.56 107.38 118.04 107.64 117.52 107.38 117 107.38H117.26z" fill="#00499F"/><path d="M165.62 106.34C163.54 107.9 162.5 109.98 162.76 111.54C161.46 111.54 159.9 112.06 158.6 113.1C157.3 114.14 156.26 115.44 156 116.74C154.96 116.74 153.66 117.26 152.62 118.3C151.84 118.82 151.32 119.6 150.8 120.64C148.98 124.02 149.5 128.44 152.1 131.3L171.08 154.18L212.16 271.44C216.58 283.92 230.36 290.16 242.58 285.22C254.54 280.28 264.16 269.62 257.66 254.02" fill="#A3CCFF"/><path d="M162.76 111.02L176.8 127.66C178.62 129.74 178.36 132.86 176.28 134.68C174.2 136.5 171.08 136.24 169.26 134.16L167.44 131.82" fill="#A3CCFF"/><path d="M177.84 113.1L183.82 120.64C185.64 122.72 185.38 125.84 183.3 127.66 181.22 129.48 178.1 129.22 176.28 127.14M156.26 116.74L166.92 130C168.74 132.08 168.48 135.2 166.4 137.02 164.32 138.84 161.2 138.58 159.38 136.5L153.14 128.96" fill="#A3CCFF"/><path d="M161.2 141.96L167.7 150.02L183.3 138.84L185.9 124.02L173.94 120.38L161.2 141.96Z" fill="#5FA7FF"/><path d="M179.366 46.9933L137.508 47.4317C135.211 47.4557 133.368 49.3376 133.392 51.635L134.277 136.13C134.301 138.428 136.183 140.271 138.48 140.247L180.338 139.808C182.635 139.784 184.478 137.902 184.454 135.605L183.569 51.1095C183.545 48.8122 181.663 46.9693 179.366 46.9933Z" fill="#146AFF"/><path d="M181.446 46.9715L139.588 47.4099C137.29 47.434 135.448 49.3159 135.472 51.6132L136.357 136.109C136.381 138.406 138.262 140.249 140.56 140.225L182.418 139.786C184.715 139.762 186.558 137.881 186.534 135.583L185.649 51.0878C185.625 48.7904 183.743 46.9475 181.446 46.9715Z" fill="url(#svg6000dda5fd7ca8ca75d00066363dafdb45a4b9d76e96400041ec9a59478d65d0__paint0_linear_455_3029)"/><path d="M178.12 52.2094L144.322 52.5633C142.025 52.5874 140.182 54.4693 140.206 56.7667L140.865 119.683C140.889 121.981 142.771 123.823 145.068 123.799L178.866 123.445C181.164 123.421 183.006 121.54 182.982 119.242L182.324 56.3256C182.299 54.0282 180.418 52.1853 178.12 52.2094Z" fill="#fff"/><path d="M161.98 138.06C164.708 138.06 166.92 135.848 166.92 133.12C166.92 130.392 164.708 128.18 161.98 128.18C159.252 128.18 157.04 130.392 157.04 133.12C157.04 135.848 159.252 138.06 161.98 138.06Z" fill="#0051AB"/><path d="M257.66 254.02L201.76 138.06C201.24 137.02 200.98 135.98 200.72 134.94C200.2 130 196.82 115.44 194.74 113.1C192.14 110.24 177.84 101.14 177.84 101.14C175.24 99.32 171.34 99.32 169.52 101.92C167.7 104.52 168.74 107.38 171.34 109.2L178.36 114.4C180.96 116.48 182.52 119.6 182 122.98C181.48 128.18 181.22 135.98 184.34 141.7" fill="#96CBFF"/><path d="M163.02 68.38C156 68.38 150.54 74.1 150.54 80.86C150.54 87.62 156.26 93.34 163.02 93.34C169.78 93.34 175.5 87.62 175.5 80.86C175.5 74.1 169.78 68.38 163.02 68.38Z" fill="url(#svg6000dda5fd7ca8ca75d00066363dafdb45a4b9d76e96400041ec9a59478d65d0__paint1_linear_455_3029)"/><path d="M170.3 78.52L167.44 84.5C167.44 84.76 167.18 85.02 166.92 85.28C166.92 85.28 166.4 85.28 166.14 85.28C165.88 85.28 165.62 85.28 165.36 85.28C165.36 85.28 164.84 85.02 164.84 84.5L163.28 80.86L161.72 84.5C161.72 84.76 161.46 85.02 161.2 85.28C161.2 85.28 160.68 85.28 160.42 85.28C160.16 85.28 159.9 85.28 159.64 85.28C159.64 85.28 159.12 85.02 159.12 84.5L156.26 78.52C156.26 78.52 156.26 78.26 156.26 78C156.26 77.74 156.26 77.22 156.78 76.96C157.04 76.96 157.56 76.7 157.82 76.7C158.08 76.7 158.34 76.7 158.6 76.7C158.6 76.7 159.12 76.96 159.12 77.48L160.68 81.38L162.24 77.48C162.24 77.22 162.5 76.96 162.76 76.7C163.02 76.44 163.28 76.7 163.54 76.7C163.8 76.7 164.06 76.7 164.32 76.7C164.58 76.7 164.84 76.96 164.84 77.48L166.66 81.38L168.22 77.48C168.22 77.22 168.48 76.96 168.74 76.96C168.74 76.96 169.26 76.96 169.52 76.96C169.78 76.96 170.3 76.96 170.56 77.22C170.82 77.22 171.08 77.74 171.08 78.26C171.08 78.78 171.08 78.52 171.08 78.78L170.3 78.52Z" fill="#fff"/></g><defs><linearGradient id="svg6000dda5fd7ca8ca75d00066363dafdb45a4b9d76e96400041ec9a59478d65d0__paint0_linear_455_3029" x1="135.704" y1="93.849" x2="186.664" y2="93.849" gradientUnits="userSpaceOnUse"><stop stop-color="#2DA3FF"/><stop offset="1" stop-color="#146AFF"/></linearGradient><linearGradient id="svg6000dda5fd7ca8ca75d00066363dafdb45a4b9d76e96400041ec9a59478d65d0__paint1_linear_455_3029" x1="163.02" y1="68.38" x2="163.02" y2="93.6" gradientUnits="userSpaceOnUse"><stop stop-color="#00A6FF"/><stop offset="1" stop-color="#146AFF"/></linearGradient><clipPath id="svg6000dda5fd7ca8ca75d00066363dafdb45a4b9d76e96400041ec9a59478d65d0__clip0_455_3029"><path fill="#fff" d="M0 0H273V221H0z"/></clipPath><filter id="svg6000dda5fd7ca8ca75d00066363dafdb45a4b9d76e96400041ec9a59478d65d0__filter0_d_455_3029" x="40.46" y="79.2" width="117.46" height="43.88" filterUnits="userSpaceOnUse" color-interpolation-filters="sRGB"><feFlood flood-opacity="0" result="BackgroundImageFix"/><feColorMatrix in="SourceAlpha" values="0 0 0 0 0 0 0 0 0 0 0 0 0 0 0 0 0 0 127 0" result="hardAlpha"/><feOffset/><feGaussianBlur stdDeviation="2"/><feColorMatrix values="0 0 0 0 0 0 0 0 0 0.25098 0 0 0 0 0.498039 0 0 0 0.2 0"/><feBlend in2="BackgroundImageFix" result="effect1_dropShadow_455_3029"/><feBlend in="SourceGraphic" in2="effect1_dropShadow_455_3029" result="shape"/></filter></defs></svg>