<svg width="33" height="27" viewBox="0 0 33 27" xmlns="http://www.w3.org/2000/svg"><defs><linearGradient x1="15.348%" y1="0%" x2="88.708%" y2="88.919%" id="svgc1ffb37bb19e8f7e3670acf77c07dcf012ef382be0027c9a7bbd3e15fcc248eb__a"><stop stop-color="#89EB89" offset="0%"/><stop stop-color="#51D251" offset="100%"/></linearGradient></defs><g fill="none" fill-rule="evenodd"><path d="M0 0H40V40H0z" transform="translate(-3 -7)"/><path d="M21.4758221,7.26470588 L34.6183948,7.26470588 C35.1744267,7.26470588 35.6293619,7.74117647 35.6293619,8.32352941 L35.6293619,32.6764706 C35.6293619,33.2588235 35.1744267,33.7352941 34.6183948,33.7352941 L21.4758221,33.7352941 C20.9197902,33.7352941 20.464855,33.2588235 20.464855,32.6764706 L20.464855,8.32352941 C20.464855,7.74117647 20.9197902,7.26470588 21.4758221,7.26470588 Z" fill="url(#svgc1ffb37bb19e8f7e3670acf77c07dcf012ef382be0027c9a7bbd3e15fcc248eb__a)" transform="translate(-3 -7)"/><path d="M4.47582213,7.76470588 C4.20123779,7.76470588 3.964855,8.01227839 3.964855,8.32352941 L3.964855,32.6764706 C3.964855,32.9877216 4.20123779,33.2352941 4.47582213,33.2352941 L17.6183948,33.2352941 C17.8929791,33.2352941 18.1293619,32.9877216 18.1293619,32.6764706 L18.1293619,8.32352941 C18.1293619,8.01227839 17.8929791,7.76470588 17.6183948,7.76470588 L4.47582213,7.76470588 Z" stroke="url(#svgc1ffb37bb19e8f7e3670acf77c07dcf012ef382be0027c9a7bbd3e15fcc248eb__a)" transform="translate(-3 -7)"/><path d="M13.625,20.0550756 C13.625,20.4294379 13.5551829,20.7696271 13.4155466,21.0756534 C13.2759103,21.3816797 13.0950205,21.692158 12.8728719,22.0070977 L11.2448477,24.28 L9.31216398,24.28 L10.9877912,22.1051444 L11.0068324,22.0784044 C10.9370143,22.1021734 10.8592634,22.1199999 10.7735775,22.1318845 C10.6878916,22.143769 10.6069672,22.1497111 10.530802,22.1497111 C10.2324881,22.1497111 9.95004614,22.1006883 9.68346774,22.002641 C9.41688935,21.9045937 9.18205,21.7649528 8.97894265,21.5837139 C8.7758353,21.402475 8.61398656,21.1855859 8.49339158,20.9330399 C8.37279659,20.6804939 8.3125,20.3997264 8.3125,20.090729 C8.3125,19.7341935 8.3823171,19.4133164 8.5219534,19.128088 C8.66158971,18.8428597 8.85199999,18.6022018 9.09318996,18.4061073 C9.33437994,18.2100128 9.61682186,18.059973 9.94052419,17.9559835 C10.2642265,17.851994 10.606965,17.8 10.96875,17.8 C11.3368821,17.8 11.6827941,17.851994 12.0064964,17.9559835 C12.3301988,18.059973 12.6110539,18.2100128 12.8490703,18.4061073 C13.0870868,18.6022018 13.2759103,18.8398886 13.4155466,19.1191747 C13.5551829,19.3984608 13.625,19.7104247 13.625,20.0550756 Z M12.0255376,20.037249 C12.0255376,19.7639051 11.9319192,19.5277039 11.7446797,19.3286382 C11.5574401,19.1295726 11.3019729,19.0300413 10.9782706,19.0300413 C10.6545683,19.0300413 10.3959276,19.1236304 10.2023409,19.3108116 C10.0087543,19.4979927 9.91196237,19.7431072 9.91196237,20.0461623 C9.91196237,20.3313907 10.0071675,20.5675919 10.1975806,20.754773 C10.3879938,20.9419542 10.6418742,21.0355433 10.9592294,21.0355433 C11.2765846,21.0355433 11.5336385,20.9434397 11.7303987,20.7592297 C11.927159,20.5750197 12.0255376,20.3343619 12.0255376,20.037249 Z" fill="url(#svgc1ffb37bb19e8f7e3670acf77c07dcf012ef382be0027c9a7bbd3e15fcc248eb__a)" fill-rule="nonzero" transform="translate(-3 -7)"/><path d="M29.7471252,23.0169492 L29.7471252,24.28 L28.3262351,24.28 L28.3262351,23.0169492 L25.3125,23.0169492 L25.3125,21.7264407 L27.9189736,17.8 L29.738075,17.8 L29.738075,21.7722034 L30.625,21.7722034 L30.625,23.0169492 L29.7471252,23.0169492 Z M28.3352853,19.3742373 L28.3081346,19.3742373 L26.7876917,21.7722034 L28.3352853,21.7722034 L28.3352853,19.3742373 Z" fill="#FFF" fill-rule="nonzero" transform="translate(-3 -7)"/></g></svg>